<?xml version="1.0" encoding="UTF-8" standalone="no"?>
<!DOCTYPE svg PUBLIC "-//W3C//DTD SVG 1.1//EN" "http://www.w3.org/Graphics/SVG/1.1/DTD/svg11.dtd">
<svg width="100%" height="100%" viewBox="0 0 1080 1080" version="1.1" xmlns="http://www.w3.org/2000/svg" xmlns:xlink="http://www.w3.org/1999/xlink" xml:space="preserve" xmlns:serif="http://www.serif.com/" style="fill-rule:evenodd;clip-rule:evenodd;stroke-linecap:round;stroke-linejoin:round;stroke-miterlimit:1.5;">
    <g transform="matrix(3.02905,0,0,3.02905,-398.077,-2051.11)">
        <g transform="matrix(1.22033,0,0,1.22033,-90.8578,-159.848)">
            <path d="M329.084,696.241C404.439,696.241 465.618,757.42 465.618,832.775C465.618,908.131 404.439,969.309 329.084,969.309C253.729,969.309 192.55,908.131 192.55,832.775C192.55,757.42 253.729,696.241 329.084,696.241ZM279.971,803.751C279.038,812.587 279.688,821.422 281.372,830.258C284.706,829.813 286.691,828.14 288.333,824.071C288.333,824.071 284.441,822.558 283.012,817.824C281.956,814.322 279.971,803.751 279.971,803.751ZM354.499,803.751C342.715,803.653 340.436,804.896 340.257,809.089C340.214,810.101 340.293,811.28 340.39,812.646C340.641,816.165 346.699,821.109 354.499,821.075C363.017,821.037 368.985,815.666 369.388,810.903C369.682,807.413 371.739,803.895 354.499,803.751ZM375.401,804.571C375.401,804.571 374.925,812.086 373.3,817.759C372.11,821.913 366.502,824.878 366.502,824.878C368.143,828.948 370.667,830.632 374,831.077C375.684,822.242 376.334,813.406 375.401,804.571ZM222.02,902.648L264.292,889.285L295.079,874.173L295.067,864.968C295.067,864.968 288.529,859.733 286.448,855.833C283.027,849.421 283.791,837.607 283.791,837.607C283.791,837.607 276.4,838.657 274.673,832.737C272.84,826.456 272.065,807.145 272.593,801.168C272.82,798.597 278.155,797.134 278.155,797.134L276.999,764.953C289.006,734.746 319.998,734.38 328.091,734.291L328.091,734.289L328.182,734.29L328.273,734.289L328.273,734.291C336.367,734.38 367.359,734.746 379.366,764.953L378.21,797.134C378.21,797.134 383.545,798.597 383.772,801.168C384.3,807.145 383.525,826.456 381.692,832.737C379.965,838.657 372.278,837.607 372.278,837.607C372.278,837.607 371.627,851.663 369.916,855.833C368.239,859.923 361.298,864.968 361.298,864.968L361.286,874.173L392.073,889.285C392.073,889.285 434.141,906.651 434.393,906.798C447.761,886.596 456.937,858.791 456.937,832.775C456.937,762.211 399.648,704.922 329.084,704.922C258.519,704.922 201.23,762.211 201.23,832.775C201.23,858.553 208.875,882.559 222.02,902.648ZM315.657,867.182L315.913,867.366L316.196,867.374C316.506,867.484 316.817,867.592 317.131,867.7L334.028,867.882L339.077,868.026L339.17,874.685L327.458,874.862L314.741,874.519L303.754,868.472L303.549,868.854L302.124,868.03L302.316,871.147L301.81,872.085L302.501,889.414L303.496,890.309L303.501,890.394L308.455,894.771L325.286,909.913L325.449,909.786L325.593,909.913L332.468,904.309L351.463,889.488L351.487,888.806L352.434,888.034L353.79,860.309C359.319,857.946 363.511,854.244 365.012,849.112L365.012,825.923C365.012,825.923 365.009,825.924 365.004,825.926L365.012,825.741L346.361,826.662L335.681,817.799C335.036,816.337 334.482,814.626 334.202,813.712L334.033,812.646L323.254,812.863L323.087,813.072L322.292,813.073C322.292,813.073 322.272,813.524 322.228,814.142L312.548,826.204C312.194,826.382 311.853,826.541 311.53,826.674C311.341,826.752 311.15,826.824 310.957,826.892L295.647,826.726L290.191,825.188L290.211,825.63C289.711,825.426 289.38,825.285 289.38,825.285L290.191,850.164C295.286,857.42 304.01,862.983 315.657,867.182ZM327.962,741.482C304.14,741.482 284.801,751.81 284.801,768.527C284.801,768.527 290.415,761.215 293.264,760.934L327.602,760.8C327.811,760.773 362.505,760.831 362.505,760.831C367.847,761.389 371.344,767.843 371.344,767.843C371.344,751.126 351.783,741.482 327.962,741.482ZM364.482,771.583L359.209,766.095L295.868,766.095L290.997,770.698L290.997,797.136C290.997,797.136 314.551,796.665 320.696,799.728C323.114,800.933 323.408,807.635 323.408,807.635L333.841,807.509C333.841,807.509 333.455,800.143 336.167,799.155C341.232,797.309 364.482,797.136 364.482,797.136L364.482,771.583ZM302.098,803.751C284.858,803.895 286.915,807.413 287.209,810.903C287.611,815.666 293.58,821.037 302.098,821.075C309.898,821.109 315.956,816.165 316.207,812.646C316.304,811.28 316.383,810.101 316.34,809.089C316.161,804.896 313.882,803.653 302.098,803.751ZM223.167,904.765L220.956,909.94L231.538,921.786C231.538,921.786 245.22,937.394 247.696,938.969C250.171,940.545 262.773,950.437 262.773,950.437C262.773,950.437 286.176,956.522 290.001,956.747C293.827,956.972 312.73,965.073 312.73,965.073L352.56,961.698L382.714,953.658L418.719,930.193L436.272,910.165L384.515,892.034L374.613,882.036L356.677,882.937L356.677,888.562L348.06,896.438L327.946,913.948L301.478,892.388L299.453,877.154L292.252,879.111L267.273,893.943L223.167,904.765Z" style="fill:white;stroke:white;stroke-width:0.27px;"/>
        </g>
        <g transform="matrix(1.01576,0,0,1.01576,-5.82252,-10.8704)">
            <path d="M311.645,689.797C402.177,689.797 475.677,763.298 475.677,853.829C475.677,944.361 402.177,1017.86 311.645,1017.86C221.113,1017.86 147.613,944.361 147.613,853.829C147.613,763.298 221.113,689.797 311.645,689.797ZM311.645,700.94C396.027,700.94 464.535,769.447 464.535,853.829C464.535,938.211 396.027,1006.72 311.645,1006.72C227.263,1006.72 158.755,938.211 158.755,853.829C158.755,769.447 227.263,700.94 311.645,700.94Z" style="fill:white;"/>
        </g>
        <path d="M380.142,928.729L379.042,986.5L362.598,988.565L366.376,1005.39" style="fill:none;stroke:white;stroke-width:7.92px;stroke-linecap:square;stroke-linejoin:miter;"/>
        <path d="M178.782,946.453L231.479,929.449L270.982,910.376L236.308,927.132L236.616,950.548L237.997,984.413L253.245,989.084L248.184,1003.93" style="fill:none;stroke:white;stroke-width:7.92px;stroke-linecap:square;stroke-linejoin:miter;"/>
        <path d="M439.831,951.251L389.18,930.185L347.043,910.867" style="fill:none;stroke:white;stroke-width:7.92px;stroke-linecap:square;"/>
        <path d="M344.406,901.987L342.967,925.174L306.032,955.472L275.788,928.584L274.284,902.408" style="fill:none;stroke:white;stroke-width:7.92px;stroke-linecap:square;stroke-linejoin:miter;"/>
        <path d="M349.313,893.446L349.118,908.601L351.683,907.747L375.667,919.515L357.088,927.307L347.043,919.935C347.043,919.935 344.452,910.145 344.406,908.705C344.361,907.265 343.094,902.888 343.094,902.888L341.827,895.459L341.942,893.446L349.313,893.446Z" style="fill:white;"/>
        <path d="M269.33,895.703L269.33,907.083L257.304,912.75L256.567,920.094L259.608,926.111L272.692,918.371L273.752,910.571L273.291,905.332L278.405,906.254L277.668,895.98L270.941,893.446L269.33,895.703Z" style="fill:white;"/>
        <path d="M289.264,1013.46L253.674,920.094" style="fill:none;stroke:white;stroke-width:7.92px;stroke-linecap:square;"/>
        <path d="M325.293,1015.88L363.52,920.094" style="fill:none;stroke:white;stroke-width:7.92px;stroke-linecap:square;"/>
    </g>
</svg>
